<?xml version="1.0" encoding="UTF-8"?>
<svg width="700pt" height="700pt" version="1.1" viewBox="0 0 700 700" xmlns="http://www.w3.org/2000/svg"
    xmlns:xlink="http://www.w3.org/1999/xlink">
    <g fill="white">
        <path
            d="m317.67 39.781c-6.0781 0-11.055 4.9727-11.055 11.055 0 6.0781 4.9766 11.051 11.055 11.051s11.051-4.9727 11.051-11.051c0-6.082-4.9727-11.055-11.051-11.055"
            fill-rule="evenodd" />
        <path
            d="m286.11 39.781h-18.379c-6.0781 0-11.051 4.9727-11.051 11.055 0 6.0781 4.9727 11.051 11.051 11.051h18.379c6.0781 0 11.051-4.9727 11.051-11.051 0-6.082-4.9727-11.055-11.051-11.055"
            fill-rule="evenodd" />
        <path
            d="m505.3 503.46c-26.156 26.109-60.391 36.746-101.92 31.664l-26.207-36.828c-2.7266-3.8242-7.8203-5.4297-12.328-4.1328-7.1836 2.0625-37.102-10.266-41.969-25.656l-13.008-41.152c-2.5352-8.0039-2.2109-16.391 0.44141-24.016l12.543 39.656c1.4883 4.7109 5.8359 7.7227 10.535 7.7227 1.1055 0 2.2266-0.16797 3.332-0.51562 5.8203-1.8438 9.0469-8.0547 7.2148-13.875l-64.777-204.88c-1.2227-3.8594-0.94922-7.9336 0.77344-11.473 1.6367-3.3438 4.3789-5.7695 7.7227-6.832 3.375-1.0664 7-0.65234 10.207 1.1055 3.4766 1.9414 6.0547 5.1289 7.2852 9.0273l37.461 116.85 0.20703 0.59766v0.007813c0.007812 0 0.007812 0.007812 0.007812 0.007812l0.09375 0.28125c0.097656 0.26172 0.23828 0.49219 0.34766 0.74219 0.16797 0.39062 0.33203 0.79688 0.53906 1.1641 0.16797 0.28906 0.375 0.54688 0.56641 0.82031 0.22656 0.31641 0.43359 0.64844 0.69141 0.93359 0.23047 0.25781 0.48828 0.48047 0.73828 0.71484 0.27344 0.25 0.52344 0.51562 0.81641 0.74609 0.27344 0.20312 0.57031 0.36719 0.85547 0.55078 0.30859 0.19922 0.61328 0.40625 0.9375 0.57422 0.30078 0.14844 0.625 0.25 0.93359 0.375 0.34766 0.13281 0.6875 0.28906 1.0391 0.38281 0.33203 0.097656 0.67969 0.14062 1.0195 0.19922 0.35938 0.066406 0.71094 0.14844 1.0742 0.17969 0.35938 0.027344 0.73047 0 1.0977 0 0.35547-0.007813 0.70703 0.007812 1.0664-0.039063 0.37109-0.042969 0.73047-0.14453 1.1016-0.22656 0.31641-0.074219 0.63281-0.10547 0.94922-0.19922 0.050781-0.015625 0.09375-0.050781 0.14844-0.066406 0.050781-0.015625 0.09375-0.015625 0.13672-0.03125 0.30469-0.10156 0.5625-0.26562 0.83984-0.39062 0.36328-0.16016 0.73047-0.30078 1.0625-0.49219 0.31641-0.18359 0.59766-0.40625 0.89844-0.61719 0.28906-0.21484 0.58984-0.40625 0.86328-0.63672 0.28125-0.25 0.51563-0.53125 0.76563-0.80078 0.23437-0.25 0.48047-0.48047 0.69141-0.75391 0.22266-0.29297 0.39844-0.60938 0.59766-0.92188 0.17969-0.29297 0.375-0.56641 0.53125-0.875 0.15625-0.31641 0.27344-0.65625 0.39844-0.98828s0.27344-0.64844 0.36719-0.98828c0.089844-0.32812 0.13281-0.66797 0.19141-1.0078 0.066407-0.36719 0.15625-0.73047 0.18359-1.0977 0.03125-0.33203 0-0.67188-0.003906-1.0039 0-0.39062 0.003906-0.78125-0.039063-1.168-0.035156-0.32031-0.13281-0.63672-0.19922-0.96094-0.074219-0.35156-0.10938-0.71484-0.21875-1.0742-1.2266-3.8633-0.95313-7.9375 0.77344-11.473 1.6328-3.3438 4.375-5.7695 7.7227-6.8242 3.3672-1.0664 7.0039-0.66406 10.203 1.0977 3.4766 1.9453 6.0586 5.1367 7.2812 8.9961l2.7617 8.7266c1.8359 5.8047 8.0234 9.0273 13.867 7.1992 5.8203-1.8438 9.0508-8.0547 7.2148-13.875-1.2227-3.8633-0.94922-7.9375 0.77344-11.473 0.80859-1.6523 1.8945-3.082 3.1836-4.2305 0.027343-0.027343 0.066406-0.050781 0.09375-0.089843 1.2969-1.125 2.793-1.9883 4.4453-2.5039 3.375-1.0664 6.9922-0.66406 10.203 1.1055 3.4727 1.9375 6.0586 5.1289 7.2734 8.9805l3.8828 12.301c0.007813 0.019531 0.015625 0.042969 0.023437 0.066406 1.8477 5.8203 8.0469 9.0469 13.875 7.207 5.8203-1.8438 9.0469-8.0469 7.2148-13.871-2.4766-7.832 1.332-16.039 8.4883-18.301 3.3594-1.0703 7.0039-0.67187 10.211 1.0977 3.4688 1.9453 6.0586 5.1367 7.3008 9.0625l21.363 65.91c7.5508 23.852 4.7969 48.859-7.7539 70.422-1.082 1.8711-1.5977 4.0234-1.4805 6.1797zm-323.29-74.996v-23.023h105.02c-0.80469 4.543-1.0781 9.1641-0.8125 13.812h-9.6211c-6.082 0-11.055 4.9766-11.055 11.055s4.9727 11.051 11.055 11.051h11.676c0.94531 0 1.8438-0.15234 2.7148-0.375l4.1992 13.27h-87.383c-14.215 0-25.789-11.566-25.789-25.789zm0-358.29v-18.035c0-14.215 11.574-25.793 25.789-25.793h165.32c14.215 0 25.789 11.578 25.789 25.793v18.035zm351.11 306.25-21.367-65.902c-2.918-9.2461-9.168-16.926-17.629-21.656-8.5977-4.7383-18.398-5.7617-27.594-2.8516-6.4609 2.043-11.922 5.8203-16.039 10.699-2.2031-2.0391-4.6562-3.832-7.332-5.3359-6.9336-3.8164-14.621-5.0898-22.145-3.9766v-235.27c0-26.41-21.484-47.895-47.895-47.895h-165.32c-26.41 0-47.895 21.484-47.895 47.895v247.27c0 6.1055 4.9531 11.051 11.051 11.051 6.1016 0 11.055-4.9453 11.055-11.051v-207.13h216.89v207.78c-0.20312 0.26562-0.45312 0.48828-0.65234 0.75391-1.543-1.2109-3.1836-2.3086-4.9219-3.2734-8.5938-4.75-18.395-5.7695-27.598-2.8594-4.582 1.4531-8.7305 3.7891-12.266 6.8672l-27.25-84.977c-2.9336-9.25-9.1719-16.926-17.633-21.645-8.5898-4.75-18.383-5.7695-27.594-2.8555-9.1758 2.8945-16.609 9.3633-20.926 18.207-4.2227 8.6484-4.9297 18.539-2 27.828l43.461 137.45c-2.2109 2.4609-4.2461 5.0391-5.9922 7.7812h-113.52v-46.961c0-6.1016-4.9531-11.051-11.055-11.051-6.0977 0-11.051 4.9492-11.051 11.051v92.09c0 26.41 21.484 47.895 47.895 47.895h94.492c5.7266 16.168 21.516 26.52 30.617 31.289 8.6953 4.5469 20.145 8.6211 30.004 8.7305l25.234 35.457c1.7422 2.4531 4.4023 4.082 7.3789 4.5234 9.2695 1.3789 18.293 2.0625 27.062 2.0625 40.613 0 75.562-14.699 102.11-43.23 2.0469-2.2109 3.1172-5.1484 2.9453-8.1562l-2.5625-45.285c14.277-26.328 17.152-56.465 8.0312-85.32z"
            fill-rule="evenodd" />
        <path
            d="m247.38 191.17c10.516-13.098 26.168-20.609 42.93-20.609 18.309 0 35.359 9.0664 45.625 24.258 2.1367 3.1602 5.6211 4.8633 9.168 4.8633 2.1289 0 4.2812-0.60938 6.1797-1.8945 5.0547-3.418 6.3906-10.285 2.9688-15.348-14.383-21.281-38.285-33.984-63.941-33.984-23.504 0-45.434 10.523-60.172 28.879-3.8164 4.7617-3.0586 11.715 1.7031 15.539 4.7617 3.8164 11.715 3.0508 15.539-1.7031"
            fill-rule="evenodd" />
        <path
            d="m213.21 225.57c0 10.395 2.0312 20.5 6.0547 30.012 1.7852 4.2148 5.8789 6.7578 10.191 6.7578 1.4297 0 2.8867-0.28125 4.2969-0.87891 5.6133-2.3789 8.25-8.8633 5.8789-14.484-2.8672-6.7812-4.3203-13.98-4.3203-21.406 0-6.1094-4.9492-11.055-11.051-11.055-6.1016 0-11.051 4.9453-11.051 11.055"
            fill-rule="evenodd" />
    </g>
</svg>