<?xml version="1.0" encoding="UTF-8"?>
<svg width="700pt" height="700pt" version="1.1" viewBox="0 0 700 700" xmlns="http://www.w3.org/2000/svg"
    xmlns:xlink="http://www.w3.org/1999/xlink">
    <g>
        <path
            d="m484.93 8.75h-269.85c-8.3008 0.023438-16.254 3.332-22.125 9.1992-5.8672 5.8711-9.1758 13.824-9.1992 22.125v479.85c0.023438 8.3008 3.332 16.254 9.1992 22.125 5.8711 5.8672 13.824 9.1758 22.125 9.1992h269.85c8.3008-0.023438 16.254-3.332 22.125-9.1992 5.8672-5.8711 9.1758-13.824 9.1992-22.125v-479.85c-0.023438-8.3008-3.332-16.254-9.1992-22.125-5.8711-5.8672-13.824-9.1758-22.125-9.1992zm-64.926 17.5v0.875c0 4.4102-1.75 8.6367-4.8711 11.754-3.1172 3.1211-7.3438 4.8711-11.754 4.8711h-106.75c-4.4102 0-8.6367-1.75-11.754-4.8711-3.1211-3.1172-4.8711-7.3438-4.8711-11.754v-0.875zm78.75 493.68c0 7.6328-6.1914 13.824-13.824 13.824h-269.85c-7.6328 0-13.824-6.1914-13.824-13.824v-479.85c0-7.6328 6.1914-13.824 13.824-13.824h47.426v0.875c0.023438 9.043 3.625 17.711 10.02 24.105s15.062 9.9961 24.105 10.02h106.75c9.043-0.023438 17.711-3.625 24.105-10.02s9.9961-15.062 10.02-24.105v-0.875h47.426c7.6328 0 13.824 6.1914 13.824 13.824z" />
        <path
            d="m148.75 100.62c-4.832 0-8.75 3.918-8.75 8.75v341.25c0 4.832 3.918 8.75 8.75 8.75s8.75-3.918 8.75-8.75v-341.25c0-2.3203-0.92188-4.5469-2.5625-6.1875s-3.8672-2.5625-6.1875-2.5625z" />
        <path
            d="m122.5 393.75v-227.5c0-4.832-3.918-8.75-8.75-8.75s-8.75 3.918-8.75 8.75v227.5c0 4.832 3.918 8.75 8.75 8.75s8.75-3.918 8.75-8.75z" />
        <path
            d="m551.25 459.38c2.3203 0 4.5469-0.92188 6.1875-2.5625s2.5625-3.8672 2.5625-6.1875v-341.25c0-4.832-3.918-8.75-8.75-8.75s-8.75 3.918-8.75 8.75v341.25c0 2.3203 0.92188 4.5469 2.5625 6.1875s3.8672 2.5625 6.1875 2.5625z" />
        <path
            d="m595 393.75v-227.5c0-4.832-3.918-8.75-8.75-8.75s-8.75 3.918-8.75 8.75v227.5c0 4.832 3.918 8.75 8.75 8.75s8.75-3.918 8.75-8.75z" />
    </g>
</svg>