<?xml version="1.0" encoding="UTF-8"?>
<svg width="700pt" height="700pt" version="1.1" viewBox="0 0 700 700" xmlns="http://www.w3.org/2000/svg"
    xmlns:xlink="http://www.w3.org/1999/xlink">
    <g>
        <path
            d="m350 145.6c-3.0977 0-5.8984 1.2617-7.9258 3.2891l-75.109 75.109h-62.566c-12.371 0-22.398 10.031-22.398 22.398v67.199c0 12.371 10.031 22.398 22.398 22.398h62.57l75.105 75.117c2.0273 2.0273 4.8281 3.2852 7.9258 3.2852 6.1836 0 11.199-5.0117 11.199-11.199v-246.4c0-6.1836-5.0156-11.199-11.199-11.199zm-11.199 123.2v107.36l-59.277-59.281c-2.0273-2.0234-4.8281-3.2812-7.9219-3.2812h-67.203v-67.203h67.199c3.0977 0 5.8984-1.2617 7.9258-3.2891l59.277-59.273z"
            fill-rule="evenodd" />
        <path
            d="m457.07 150.5-15.973 15.965c33.207 26.695 54.523 67.582 54.523 113.5 0 45.938-21.32 86.824-54.523 113.51l15.973 15.973c37.223-30.832 60.934-77.391 60.934-129.49 0-52.094-23.711-98.641-60.934-129.46z"
            fill-rule="evenodd" />
        <path
            d="m409.13 198.44-16.043 16.043c21.258 14.023 35.312 38.094 35.312 65.48 0 27.391-14.066 51.457-35.34 65.469l16.031 16.031c25.246-18.312 41.727-47.953 41.727-81.508 0.007813-33.559-16.465-63.199-41.688-81.516z"
            fill-rule="evenodd" />

    </g>
</svg>